<svg width="54" height="38" viewBox="0 0 54 38" fill="none" xmlns="http://www.w3.org/2000/svg">
<path d="M12.05 37.5C9.61667 37.5 7.48333 37.05 5.65 36.15C3.85 35.2167 2.45 33.9333 1.45 32.3C0.483333 30.6333 1.19209e-07 28.7 1.19209e-07 26.5V20C1.19209e-07 17.8 0.483333 15.8833 1.45 14.25C2.45 12.5833 3.85 11.3 5.65 10.4C7.48333 9.46667 9.61667 9 12.05 9C14.4833 9 16.5833 9.46667 18.35 10.4C20.15 11.3 21.5333 12.5833 22.5 14.25C23.5 15.8833 24 17.8 24 20V25.1H7.15V26.5C7.15 28.2333 7.55 29.5 8.35 30.3C9.18333 31.1 10.4167 31.5 12.05 31.5C13.1167 31.5 14.05 31.3333 14.85 31C15.65 30.6667 16.1167 30.1667 16.25 29.5H23.6C23.0667 31.9 21.75 33.8333 19.65 35.3C17.55 36.7667 15.0167 37.5 12.05 37.5ZM7.15 20V20.65L16.85 20.55V19.9C16.85 18.2 16.45 16.8833 15.65 15.95C14.8833 15.0167 13.6833 14.55 12.05 14.55C10.4167 14.55 9.18333 15.0333 8.35 16C7.55 16.9667 7.15 18.3 7.15 20ZM38.8805 37.5C36.2471 37.5 34.0971 36.5333 32.4305 34.6C30.7971 32.6333 29.9805 30.0167 29.9805 26.75V19.75C29.9805 16.4833 30.7971 13.8833 32.4305 11.95C34.0971 9.98333 36.2471 9 38.8805 9C40.7138 9 42.2638 9.46667 43.5305 10.4C44.8305 11.3 45.7805 12.6 46.3805 14.3L46.1805 8V0.499999H53.6805V37H46.4305V32.05C45.8305 33.7833 44.8805 35.1333 43.5805 36.1C42.2805 37.0333 40.7138 37.5 38.8805 37.5ZM41.7805 31C43.2138 31 44.2971 30.6 45.0305 29.8C45.7971 28.9667 46.1805 27.7833 46.1805 26.25V20.25C46.1805 18.7167 45.7971 17.55 45.0305 16.75C44.2971 15.9167 43.2138 15.5 41.7805 15.5C40.4138 15.5 39.3471 15.8833 38.5805 16.65C37.8471 17.4167 37.4805 18.5333 37.4805 20V26.5C37.4805 27.9333 37.8471 29.05 38.5805 29.85C39.3471 30.6167 40.4138 31 41.7805 31Z" fill="#FFFFFC"/>
</svg>
